<svg width="240" height="56" viewBox="0 0 240 56" fill="none" xmlns="http://www.w3.org/2000/svg">
  <defs>
    <linearGradient id="sakinaGradient" x1="4" y1="4" x2="52" y2="52" gradientUnits="userSpaceOnUse">
      <stop stop-color="#22D3EE"/>
      <stop offset="1" stop-color="#34D399"/>
    </linearGradient>
  </defs>
  <rect x="2" y="2" width="52" height="52" rx="15" fill="#0F172A" stroke="url(#sakinaGradient)" stroke-width="2"/>
  <path d="M17 24C17 20.6863 19.6863 18 23 18H33C36.3137 18 39 20.6863 39 24V34C39 37.3137 36.3137 40 33 40H23C19.6863 40 17 37.3137 17 34V24Z" fill="url(#sakinaGradient)" fill-opacity="0.18"/>
  <path d="M28 20V38M19 29H37" stroke="url(#sakinaGradient)" stroke-width="3.2" stroke-linecap="round"/>
  <path d="M15.5 16.5L11 12M40.5 16.5L45 12M15.5 39.5L11 44M40.5 39.5L45 44" stroke="#22D3EE" stroke-opacity="0.75" stroke-width="1.6" stroke-linecap="round"/>
  <text x="66" y="25" fill="#E2E8F0" font-size="18" font-family="Segoe UI, Arial, sans-serif" font-weight="700">Sakina Health</text>
  <text x="66" y="42" fill="#94A3B8" font-size="11" font-family="Segoe UI, Arial, sans-serif" letter-spacing="1.6">CARE PLATFORM</text>
</svg>
